<?xml version="1.0" encoding="UTF-8" standalone="no"?>
<svg width="114px" height="102px" viewBox="0 0 114 102" version="1.1" xmlns="http://www.w3.org/2000/svg" xmlns:xlink="http://www.w3.org/1999/xlink" xmlns:sketch="http://www.bohemiancoding.com/sketch/ns">
    <!-- Generator: Sketch 3.3.3 (12081) - http://www.bohemiancoding.com/sketch -->
    <title>Chimp Logo Outlines</title>
    <desc>Created with Sketch.</desc>
    <defs></defs>
    <g id="Page-1" stroke="none" stroke-width="1" fill="none" fill-rule="evenodd" sketch:type="MSPage">
        <g id="Artboard-1-Copy-2" sketch:type="MSArtboardGroup" transform="translate(-99.000000, -99.000000)">
            <g id="Chimp-Logo-Outlines" sketch:type="MSLayerGroup" transform="translate(100.000000, 100.000000)">
                <path d="M111.294073,99.4617328 C111.294073,99.7351232 111.069796,99.9574126 110.793961,99.9574126 L0.842970913,99.9574126 C0.567136394,99.9574126 0.344148676,99.7351232 0.344148676,99.4617328 L0.344148676,1.17660081 C0.344148676,0.903210392 0.567136394,0.682198514 0.842970913,0.682198514 L110.793961,0.682198514 C111.069796,0.682198514 111.294073,0.903210392 111.294073,1.17660081 L111.294073,99.4617328" id="Fill-1" stroke="#FFFFFF" stroke-width="2" sketch:type="MSShapeGroup"></path>
                <path d="M44.2572619,37.0367362 C44.2572619,38.3168165 45.3051753,39.3541671 46.5966995,39.3541671 C47.8869348,39.3541671 48.9348482,38.3168165 48.9348482,37.0367362 C48.9348482,35.7566558 47.8869348,34.7180277 46.5966995,34.7180277 L44.7393278,34.7180277 C44.4725159,34.7180277 44.2572619,34.932652 44.2572619,35.1958222 L44.2572619,37.0367362 L44.2572619,37.0367362 Z M67.3809594,63.5696593 C67.3809594,62.2895789 66.334335,61.2509508 65.0428107,61.2509508 C63.7512865,61.2509508 62.7046621,62.2895789 62.7046621,63.5696593 C62.7046621,64.8497396 63.7512865,65.8870902 65.0428107,65.8870902 L66.9001824,65.8870902 C67.1657054,65.8870902 67.3809594,65.6737434 67.3809594,65.4105732 L67.3809594,63.5696593 L67.3809594,63.5696593 Z M76.3623376,51.7512726 L76.3546039,50.383043 C76.3546039,48.7209826 76.9732981,41.569396 70.4009607,41.569396 C67.9274727,41.569396 66.8292904,42.8124281 65.8651585,43.6824228 C65.8651585,43.6824228 64.8069335,41.5681184 61.3718915,41.5681184 C59.6369697,41.5681184 58.7566194,42.3716818 57.9716511,42.9938367 L57.9716511,41.8185134 L54.1241462,41.822346 C53.8457338,41.822346 53.6175903,42.0459129 53.6175903,42.3231359 L53.6175903,53.5909091 C53.6175903,54.2092313 53.5943892,54.1236371 53.2541074,54.4775117 C52.9834287,54.7598447 52.2435735,55.2478594 51.2317506,55.2478594 C50.4815838,55.2478594 49.8989801,55.0626182 49.5238967,54.6806382 C48.6087448,53.7480447 48.6706142,51.9646194 48.6706142,51.1763863 L48.6706142,41.8185134 L44.7779962,41.822346 C44.4982949,41.822346 44.2714403,42.0459129 44.2714403,42.3231359 L44.2727292,51.1763863 C44.2727292,51.4829923 44.2521061,52.7490199 44.5846543,54.1772932 C43.5186956,55.1431023 42.6602574,55.2657448 41.7773291,55.2657448 C41.0606749,55.2657448 40.4187797,55.0843362 40.0694752,54.3293187 C39.5835424,53.2791929 39.6595903,51.1406156 39.6595903,50.383043 C39.6595903,49.2332703 39.858088,44.7670418 38.5330511,43.1126465 C37.8318643,42.2388192 36.9592476,41.4761366 34.9252903,41.4761366 C33.6505224,41.4761366 32.3499755,41.9500985 31.1821901,42.9286829 L31.1821901,34.2185153 L27.2895721,35.4257768 C26.9918255,35.5164811 26.7843052,35.6518987 26.7843052,35.9291217 L26.7843052,51.7282772 C26.7843052,53.8745197 24.9565792,54.6768056 23.0502276,54.6768056 C20.518737,54.6768056 19.0648055,52.4270835 19.0648055,50.3485499 C19.0648055,47.9276394 20.2854377,45.9921886 22.4805133,45.9921886 C22.6815889,45.9921886 22.895554,45.8018373 22.992225,45.5258918 C23.1378759,45.1106961 24.2064125,41.9807591 24.2064125,41.9807591 C24.2064125,41.9807591 23.3827757,41.7674124 22.6803,41.7674124 C17.5734945,41.7674124 14.7171894,45.8682686 14.7171894,50.3396072 C14.7171894,54.8096682 18.0594273,58.962903 22.992225,58.962903 C27.6234092,58.962903 31.1821901,56.4500107 31.1821901,51.7947085 L31.1821901,46.8634608 C31.1821901,46.3524507 31.2015243,46.4239921 31.4838036,46.1314388 C31.7067913,45.8989292 32.3177518,45.4952312 33.154278,45.4952312 C33.7729723,45.4952312 34.2550382,45.6485343 34.5643853,45.964083 C35.3222858,46.7344308 35.2707279,48.2074174 35.2707279,48.8589554 L35.2784616,50.227185 C35.2784616,51.8892454 34.6597674,59.040832 41.2321048,59.040832 C43.7055928,59.040832 44.8037751,57.7977999 45.769196,56.9278052 C45.769196,56.9278052 46.824843,59.0421096 50.259885,59.0421096 C51.9948068,59.0421096 52.8764461,58.2372686 53.6614145,57.6163913 L53.6614145,58.7917146 L57.5089193,58.787882 C57.7886207,58.787882 58.0141863,58.5643151 58.0141863,58.2870921 L58.0141863,47.0180414 C58.0141863,46.4009967 58.0386763,46.4865909 58.3789581,46.1327164 C58.6483479,45.8503833 59.389492,45.3623686 60.4013149,45.3623686 C61.1501928,45.3623686 61.7327965,45.5476098 62.1078799,45.9295898 C63.0243207,46.8621833 62.9624513,48.6456086 62.9624513,49.4338417 L62.9624513,58.7917146 L66.8550693,58.787882 C67.1347707,58.787882 67.3616252,58.5643151 67.3616252,58.2870921 L67.3603363,49.4338417 C67.3603363,49.1272357 67.3809594,47.8612081 67.0484113,46.4329348 C68.1156588,45.4684032 68.9728082,45.3444832 69.8544475,45.3444832 C70.5723906,45.3444832 71.2142859,45.5271694 71.5635903,46.2809093 C72.0495231,47.3310351 71.9747642,49.4696125 71.9747642,50.2284625 C71.9747642,51.3782353 71.7762665,55.8431862 73.1025923,57.498859 C73.8037791,58.3726863 74.6763958,59.1340914 76.7090641,59.1340914 C77.985121,59.1340914 79.2856679,58.6601295 80.4521643,57.6815451 L80.4534533,66.3917127 L84.3460713,65.1857288 C84.6438179,65.0950245 84.8513382,64.9583293 84.8513382,64.6811063 L84.8513382,48.8832283 C84.8513382,46.7357083 86.6790642,45.9346999 88.5854158,45.9346999 C91.1169065,45.9346999 92.5708379,48.184422 92.5708379,50.2629557 C92.5708379,52.6838661 91.3502057,54.619317 89.1551301,54.619317 C88.9540545,54.619317 88.7400894,54.8083907 88.6434184,55.0843362 C88.4977675,55.4995319 87.4305199,58.6307464 87.4305199,58.6307464 C87.4305199,58.6307464 88.2528677,58.8428156 88.9553434,58.8428156 C94.0621489,58.8428156 96.918454,54.7432369 96.918454,50.2718983 C96.918454,45.8005598 93.5762161,41.647325 88.6434184,41.647325 C84.0122342,41.647325 80.4534533,44.1614948 80.4534533,48.8155195 L80.4534533,53.7480447 C80.4534533,54.2577773 80.4328302,54.1862359 80.1531288,54.4800667 C79.9288521,54.7125763 79.3178916,55.1162743 78.4813654,55.1162743 C77.8626711,55.1162743 77.3806052,54.9629713 77.0712581,54.6474225 C76.3146466,53.8770748 76.3662044,52.4040881 76.3662044,51.7512726 L76.3571818,50.383043 L76.3623376,51.7512726 Z" id="Fill-2" fill="#FFFFFF" sketch:type="MSShapeGroup"></path>
            </g>
        </g>
    </g>
</svg>
